<svg id="Summary-Logo" xmlns="http://www.w3.org/2000/svg" width="700" height="180" viewBox="0 0 700 180">
  <defs>
    <style>
      .cls-1 {
        fill: #43a9fd;
      }

      .cls-1, .cls-2 {
        fill-rule: evenodd;
      }
    </style>
  </defs>
  <path id="Summary_copy_4" data-name="Summary copy 4" class="cls-1" d="M193.293,84.752V164h13.55V106.139q4.907-11.352,18.238-11.353Q242,94.786,242,112.071V164h13.623V111.412a18.264,18.264,0,0,1,5.786-12.122,17.964,17.964,0,0,1,12.524-4.5q9.154,0,13.037,4.212t3.882,12.707V164H304.4V110.9q-0.44-27.611-26.514-27.612A30.392,30.392,0,0,0,262.91,86.8a30.011,30.011,0,0,0-10.29,9.228q-6.007-12.744-22.632-12.744-14.8,0-23.511,10.254l-0.366-8.789H193.293Zm131.47,0V164h13.55V106.139q4.907-11.352,18.237-11.353,16.92,0,16.919,17.285V164h13.623V111.412a18.269,18.269,0,0,1,5.786-12.122,17.967,17.967,0,0,1,12.525-4.5q9.154,0,13.037,4.212t3.882,12.707V164h13.55V110.9q-0.44-27.611-26.514-27.612A30.392,30.392,0,0,0,394.38,86.8a30.023,30.023,0,0,0-10.291,9.228q-6.006-12.744-22.631-12.744-14.8,0-23.511,10.254l-0.366-8.789H324.763Z" transform="translate(17.844 -35.953)"/>
  <path id="Summary_copy_3" data-name="Summary copy 3" class="cls-2" d="M78.157,152.354q-7.544,5.494-20,5.494-13.99,0-22.412-6.519t-8.423-17.8H18.318a29.11,29.11,0,0,0,4.871,16.626q4.87,7.251,14.282,11.28a52.066,52.066,0,0,0,20.691,4.028q16.479,0,26.55-7.617a24.105,24.105,0,0,0,10.071-20.215,25.2,25.2,0,0,0-3.735-13.843,31.023,31.023,0,0,0-11.133-10.071q-7.4-4.21-21.753-8.135T37.288,96.523a16.137,16.137,0,0,1-6.519-13.279A17.052,17.052,0,0,1,38.02,68.977q7.251-5.466,19.482-5.466,12.6,0,20.068,6.649t7.471,17.594h9.082a30.013,30.013,0,0,0-4.614-16.333A31.115,31.115,0,0,0,76.509,60a42.713,42.713,0,0,0-19.006-4.1q-15.674,0-25.745,7.654T21.687,83.434q0,12.6,10.84,20.361,7.617,5.493,24.17,10.144t22.778,9.814q6.224,5.164,6.226,14.026A17.173,17.173,0,0,1,78.157,152.354ZM163.264,164h8.5V84.752h-8.789V142.1q-5.053,15.747-24.1,15.747-18.312,0-18.311-22.632V84.752h-8.716v51.562q0.145,14.43,6.738,21.79t19.263,7.361q17.358,0,25.269-11.5Zm353.613,0v-0.879q-2.417-5.713-2.417-17.212v-37.5q-0.219-11.865-7.873-18.494t-20.911-6.628q-12.818,0-21.606,6.921t-8.789,16.37l8.789,0.073q0-6.591,6.006-11.279t15.161-4.687q10.033,0,15.271,4.871t5.237,13.367v9.009H489.851q-17.213,0-26.843,6.738a21.211,21.211,0,0,0-9.632,18.31,20.757,20.757,0,0,0,7.068,16.114q7.068,6.372,18.494,6.372a36.015,36.015,0,0,0,15.124-3.259,30.556,30.556,0,0,0,11.756-9.266A41.478,41.478,0,0,0,507.5,164h9.375Zm-49.768-10.693a14.168,14.168,0,0,1-4.943-11.06q0-8.13,7.4-12.781t20.508-4.8h15.674V142.1a25,25,0,0,1-10.071,11.352,29.415,29.415,0,0,1-15.711,4.248Q472.054,157.7,467.109,153.307ZM574.666,84.239a14.437,14.437,0,0,0-5.787-.952q-15.381,0-22.338,14.063l-0.147-12.6h-8.569V164h8.716V109.581q2.416-8.715,8.093-13.293a21.4,21.4,0,0,1,13.879-4.578,32.812,32.812,0,0,1,5.933.513ZM588.8,84.752h-9.594l29.882,78.589-3.881,10.693q-2.785,7.763-6.775,10.95T588,188.17l-4.541-.44,0.073,7.251a24.565,24.565,0,0,0,6.738,1.026q13.623,0,20.142-14.429l1.758-4.1L646,84.752h-9.448L613.411,151.4Z" transform="translate(17.844 -35.953)"/>
</svg>
