<svg id="Layer_1" enable-background="new 0 0 512 512" height="512" viewBox="0 0 512 512" width="512" xmlns="http://www.w3.org/2000/svg"><g><path d="m183.7 214.767h144.6c8.284 0 15-6.716 15-15v-32.133c0-22.182-8.32-42.454-21.998-57.871-15.635 18.67-39.101 30.57-65.302 30.57s-49.666-11.9-65.302-30.57c-13.678 15.417-21.998 35.689-21.998 57.871v32.133c0 8.284 6.716 15 15 15z"/><path d="m256 110.333c30.419 0 55.167-24.747 55.167-55.166s-24.748-55.167-55.167-55.167-55.167 24.748-55.167 55.167 24.748 55.166 55.167 55.166z"/><path d="m174.212 265.458c-15.529-15.529-40.707-15.529-56.236 0s-15.529 40.707 0 56.236l36.163 36.167c5.858 5.858 5.858 15.355 0 21.213-5.858 5.857-15.356 5.859-21.213 0 0 0-.001-.001-.001-.001l-64.265-64.266c-2.813-2.813-4.394-6.629-4.394-10.607v-127.467c0-17.753-14.356-32.133-32.133-32.133h-17.133c-8.284 0-15 6.716-15 15v192.8c0 3.979 1.58 7.793 4.394 10.606l92.006 92.007v41.987c0 8.284 6.716 15 15 15h112.466c8.284 0 15-6.716 15-15v-127.393c0-25.464-9.916-49.404-27.919-67.406z"/><path d="m497 144.6h-17.134c-17.777 0-32.133 14.381-32.133 32.133v127.467c0 3.978-1.58 7.793-4.394 10.607l-64.266 64.266s-.001.001-.001.001c-5.856 5.859-15.354 5.857-21.213 0-5.858-5.858-5.858-15.355 0-21.213l36.163-36.167c15.529-15.529 15.529-40.707 0-56.236s-40.707-15.529-56.236 0l-36.735 36.743c-18.003 18.002-27.919 41.942-27.919 67.406v127.393c0 8.284 6.716 15 15 15h112.466c8.284 0 15-6.716 15-15v-41.987l92.007-92.007c2.813-2.813 4.394-6.628 4.394-10.606v-192.8c.001-8.284-6.715-15-14.999-15z"/></g></svg>