<?xml version="1.0" encoding="UTF-8"?>
<svg xmlns="http://www.w3.org/2000/svg" xmlns:xlink="http://www.w3.org/1999/xlink" width="512" height="512" viewBox="0 0 51 56" version="1.1"><!-- Generator: Sketch 51.3 (57544) - http://www.bohemiancoding.com/sketch --><title>050 - Human Brain</title><desc>Created with Sketch.</desc><defs/><g id="Page-1" stroke="none" stroke-width="1" fill="none" fill-rule="evenodd"><g id="050---Human-Brain" transform="translate(0.000000, -1.000000)" fill="#000000" fill-rule="nonzero"><path d="M33.182,29.5 C32.753,31.241 32.613,33.715 34.6,35.2 C37.1,37.075 38.181,38.286 38.648,39.455 C38.8981734,38.6612802 39.0170709,37.8320375 39,37 C39.0612191,35.09673 39.7451982,33.266111 40.947,31.789 C40.5597375,31.8314192 40.1705681,31.8541151 39.781,31.857 C37.379504,31.832197 35.055797,31.0022261 33.182,29.5 Z" id="Shape"/><path d="M12,17 C12,16.4477153 12.4477153,16 13,16 C13.5522847,16 14,16.4477153 14,17 C14,18.6568542 12.6568542,20 11,20 L9.968,20 C10.0835147,20.8681064 10.4502121,21.6835301 11.023,22.346 C11.303848,22.636273 11.6348309,22.8734153 12,23.046 L12,23 C12,22.4477153 12.4477153,22 13,22 C13.5522847,22 14,22.4477153 14,23 L14,23.512 C14.6092719,23.5383762 15.2196722,23.506902 15.823,23.418 L17.165,23.227 C19.7505619,22.7592098 22.372467,22.5212807 25,22.516 L25,22 C25,21.4477153 25.4477153,21 26,21 C26.5522847,21 27,21.4477153 27,22 L27,22.76 C28.6153944,23.1104649 30.0938581,23.9235331 31.255,25.1 C32.4033255,26.2817404 33.6568299,27.3565075 35,28.311 L35,28 C35,26.3431458 36.3431458,25 38,25 L41,25 C41.5522847,25 42,25.4477153 42,26 C42,26.5522847 41.5522847,27 41,27 L38,27 C37.4477153,27 37,27.4477153 37,28 L37,29.358 C38.8168986,30.0033161 40.7956612,30.0328341 42.631,29.442 C43.7902606,28.9457343 44.7801377,28.1229793 45.48,27.074 C45.8882799,26.4236918 46.2185545,25.7275643 46.464,25 L45,25 C44.4477153,25 44,24.5522847 44,24 C44,23.4477153 44.4477153,23 45,23 L46.916,23 C46.954,22.665 46.992,22.33 46.997,21.982 C47.002,21.652 46.986,21.327 46.979,21 L45,21 C44.4477153,21 44,20.5522847 44,20 C44,19.4477153 44.4477153,19 45,19 L46.863,19 C46.7468479,17.7213178 46.5179581,16.4553969 46.179,15.217 C45.7621953,13.7661575 45.0165575,12.4309216 44,11.315 L44,12 C44,13.6568542 42.6568542,15 41,15 C40.4477153,15 40,14.5522847 40,14 C40,13.4477153 40.4477153,13 41,13 C41.5522847,13 42,12.5522847 42,12 L42,9.5 C41.32,8.977 40.656,8.513 40,8.088 L40,10 C40,10.5522847 39.5522847,11 39,11 C38.4477153,11 38,10.5522847 38,10 L38,7 C38,6.977 38.012,6.958 38.013,6.935 C36.4415187,6.11055331 34.7496696,5.53951628 33,5.243 L33,8 L34,8 C34.5522847,8 35,8.44771525 35,9 C35,9.55228475 34.5522847,10 34,10 L32,10 C31.4477153,10 31,9.55228475 31,9 L31,5.025 C30.408,4.998 29.807,4.997 29.189,5.025 C29.127,5.025 29.063,5.037 29,5.041 L29,6 C29,6.55228475 28.5522847,7 28,7 C27.4477153,7 27,6.55228475 27,6 L27,5.208 C26.333,5.281 25.666,5.374 25,5.473 L25,6 C25,6.55228475 24.5522847,7 24,7 C23.4477153,7 23,6.55228475 23,6 L23,5.8 C22.12,5.957 21.248,6.122 20.4,6.294 C19.5895656,6.45629213 18.7884157,6.66192061 18,6.91 L18,9 C18,9.55228475 18.4477153,10 19,10 C19.5522847,10 20,10.4477153 20,11 C20,11.5522847 19.5522847,12 19,12 C17.3431458,12 16,10.6568542 16,9 L16,7.693 C15.0872729,8.10740947 14.2569344,8.68332762 13.549,9.393 C12.8167533,10.1777751 12.1892029,11.05406 11.682,12 L14,12 C14.5522847,12 15,12.4477153 15,13 C15,13.5522847 14.5522847,14 14,14 L10.771,14 C10.542,14.677 10.171,16.213 10.038,16.781 C9.95930565,17.1835671 9.90619925,17.5907162 9.879,18 L11,18 C11.5522847,18 12,17.5522847 12,17 Z M39,21 C39.5522847,21 40,20.5522847 40,20 L40,18 C40,17.4477153 40.4477153,17 41,17 C41.5522847,17 42,17.4477153 42,18 L42,20 C42,21.6568542 40.6568542,23 39,23 L38,23 C37.4477153,23 37,22.5522847 37,22 C37,21.4477153 37.4477153,21 38,21 L39,21 Z M36,12 L37,12 C37.5522847,12 38,12.4477153 38,13 C38,13.5522847 37.5522847,14 37,14 L36,14 C35.4477153,14 35,14.4477153 35,15 C35,15.5522847 35.4477153,16 36,16 L37,16 C37.5522847,16 38,16.4477153 38,17 C38,17.5522847 37.5522847,18 37,18 L36,18 C34.3431458,18 33,16.6568542 33,15 C33,13.3431458 34.3431458,12 36,12 Z M31,18 L31,19 C31,19.5522847 31.4477153,20 32,20 L33,20 C33.5522847,20 34,20.4477153 34,21 C34,21.5522847 33.5522847,22 33,22 L32,22 C30.3431458,22 29,20.6568542 29,19 L29,18 C29,17.4477153 29.4477153,17 30,17 C30.5522847,17 31,17.4477153 31,18 Z M22,12 C22,10.3431458 23.3431458,9 25,9 L27,9 C28.6568542,9 30,10.3431458 30,12 L30,13 C30,13.5522847 29.5522847,14 29,14 C28.4477153,14 28,13.5522847 28,13 L28,12 C28,11.4477153 27.5522847,11 27,11 L25,11 C24.4477153,11 24,11.4477153 24,12 L24,13 C24,13.5522847 23.5522847,14 23,14 C22.4477153,14 22,13.5522847 22,13 L22,12 Z M23,17 L24,17 C24.5522847,17 25,16.5522847 25,16 L25,14 C25,13.4477153 25.4477153,13 26,13 C26.5522847,13 27,13.4477153 27,14 L27,16 C27,17.6568542 25.6568542,19 24,19 L23,19 C22.4477153,19 22,18.5522847 22,18 C22,17.4477153 22.4477153,17 23,17 Z M16,17 C16,15.3431458 17.3431458,14 19,14 L20,14 C20.5522847,14 21,14.4477153 21,15 C21,15.5522847 20.5522847,16 20,16 L19,16 C18.4477153,16 18,16.4477153 18,17 L18,18 C18,18.5522847 18.4477153,19 19,19 L20,19 C20.5522847,19 21,19.4477153 21,20 C21,20.5522847 20.5522847,21 20,21 L19,21 C17.3431458,21 16,19.6568542 16,18 L16,17 Z" id="Shape"/><path d="M2.289,35.215 C3.146,35.651 4.317,36.249 4.55,37.476 C4.69485807,38.2311779 4.60083456,39.0127265 4.281,39.712 C4.111,40.069 3.936,40.382 3.781,40.653 C3.728,40.746 3.671,40.853 3.62,40.942 C4.03,41.271 4.602,41.699 4.842,41.877 C5.05880559,42.0376423 5.20149027,42.2790834 5.23764592,42.5464845 C5.27380157,42.8138856 5.20035925,43.0845495 5.034,43.297 C4.88637287,43.4902947 4.75809025,43.6976235 4.651,43.916 L4.865,44.039 C5.74850579,44.4196203 6.42193753,45.1668228 6.709,46.085 C6.85245273,46.7943366 6.82018121,47.5279987 6.615,48.222 C6.569,48.43 6.522,48.637 6.495,48.844 C6.43755494,49.4427309 6.52005899,50.0466195 6.736,50.608 C6.9511242,51.537622 7.86304892,52.1305498 8.8,51.95 C11.7082521,51.2405321 14.5760902,50.3746058 17.391,49.356 C18.348,49.029 19.223,48.723 19.936,48.473 C20.723,48.197 21.316,47.99 21.614,47.896 C25.769,46.596 26.614,45.09 26.588,44.06 C26.5815579,43.7947619 26.6807846,43.5378357 26.8638363,43.3457814 C27.0468879,43.1537272 27.2987583,43.0422894 27.564,43.036 C28.1086638,43.0428959 28.5555395,43.4692606 28.588,44.013 C28.646,46.513 26.502,48.458 22.215,49.804 C21.929,49.894 21.356,50.095 20.598,50.36 C20.373,50.44 20.132,50.523 19.877,50.612 C21.531547,52.4400604 22.7401374,54.6265446 23.408,57 L46.086,56.938 L46.014,56.829 C45.728067,56.4166191 45.4704742,55.9852931 45.243,55.538 C44.7479057,54.5237564 44.3323229,53.4725963 44,52.394 C43.3929512,50.3484416 42.9738794,48.2517436 42.748,46.13 C42.3507624,42.7856985 42.8548317,39.3960049 44.208,36.312 C45.0076285,34.6458884 45.9946737,33.0764128 47.15,31.634 C47.732,30.85 48.334,30.039 48.85,29.217 C50.2334809,27.0765484 50.9791964,24.5865525 51,22.038 C51.0565616,19.3668048 50.7295631,16.7013123 50.029,14.123 C49.1438132,11.0884855 47.2862497,8.42880033 44.742,6.553 C39.5,2.445 34.646,0.733 28.988,1.031 C25.8324216,1.25087605 22.6970954,1.70073737 19.607,2.377 C15.515,3.2 12.583,4.6 10.646,6.64 C9.06370723,8.32864858 7.84308304,10.3227544 7.059,12.5 C6.71578786,13.4907322 6.4365467,14.5024803 6.223,15.529 L6.142,15.878 C5.90371914,16.7812913 5.5785352,17.6593884 5.171,18.5 C4.98,18.926 4.789,19.352 4.625,19.786 C4.5234659,20.005633 4.46896694,20.244066 4.465,20.486 C4.508,20.794 4.89,21.144 5.294,21.514 C6.12234739,22.0949196 6.65706311,23.0074038 6.759,24.014 C6.74246385,24.4911444 6.60777144,24.9567266 6.367,25.369 C5.11750632,28.0036689 3.58623782,30.4952074 1.8,32.8 C1.031,33.739 0.874,34.1 0.871,34.255 C1.05520853,34.4277033 1.25172627,34.586789 1.459,34.731 C1.72173972,34.9151122 1.99936733,35.0770059 2.289,35.215 Z M8.083,16.358 C8.144,16.097 8.627,14.023 8.934,13.19 C8.996,13.023 9.073,12.868 9.14,12.704 C9.15919905,12.6427067 9.18431744,12.5834274 9.215,12.527 C9.89538444,10.8609426 10.8729399,9.33243217 12.1,8.016 C13.3670556,6.77244501 14.9034006,5.83729339 16.59,5.283 C16.612,5.273 16.635,5.268 16.658,5.259 C17.7476586,4.86967288 18.864732,4.56182589 20,4.338 C22.5895146,3.78827536 25.2080209,3.38529983 27.843,3.131 C27.8943152,3.11605081 27.9468539,3.10567693 28,3.1 C28.023,3.1 28.042,3.111 28.065,3.113 C28.406,3.085 28.747,3.046 29.088,3.028 C29.469,3.01 29.841,3 30.209,3 C34.886,3 38.987,4.583 43.509,8.131 C45.7153132,9.74877762 47.329047,12.0465827 48.102,14.671 C48.5759805,16.3962546 48.8603293,18.1680696 48.95,19.955 C48.95,19.971 48.959,19.984 48.959,20 C48.9594662,20.0059909 48.9594662,20.0120091 48.959,20.018 C48.995,20.675 49.01,21.34 49,22.011 C48.9855191,22.6787408 48.9149373,23.3440829 48.789,24 C48.7878539,24.1420865 48.7561355,24.2822615 48.696,24.411 C48.4099705,25.7351282 47.8934467,26.998682 47.17,28.144 C46.4973659,29.1238732 45.6498732,29.9713659 44.67,30.644 L44.64,30.671 C42.83,32.423 41,34.545 41,37 C41,41.488 38.709,42.764 38.447,42.9 C38.1361412,43.0553431 37.7669236,43.0381628 37.4718336,42.8546237 C37.1767435,42.6710847 36.9980979,42.3475069 37,42 C37,40.231 37,39.5 33.4,36.8 C30.058,34.3 30.874,30.078 31.5,28.1 C30.932,27.583 30.386,27.051 29.853,26.53 C27.082,23.82 23.862,24.283 17.446,25.206 L16.1,25.4 C13.208,25.81 11.006,25.246 9.566,23.72 C7.3,21.312 7.858,17.477 8.083,16.358 Z" id="Shape"/></g></g></svg>
