<svg id="Glyph" enable-background="new 0 0 64 64" height="512" viewBox="0 0 64 64" width="512" xmlns="http://www.w3.org/2000/svg"><path d="m61 35v-2c0-2.209-1.791-4-4-4h-3-3c-1.304 0-2.451.634-3.182 1.6l-2.865-.505c.026-.363.047-.726.047-1.095 0-3.815-1.34-7.315-3.569-10.064l2.419-1.936h5.415l2.229 4.905c-.904.733-1.494 1.84-1.494 3.095 0 2.209 1.791 4 4 4s4-1.791 4-4-1.791-4-4-4c-.236 0-.464.03-.688.069l-1.85-4.069h4.538v-2c0-2.209-1.791-4-4-4h-3-3c-2.209 0-4 1.791-4 4v.92l-1.931 1.545c-2.875-2.76-6.77-4.465-11.069-4.465-3.756 0-7.202 1.303-9.932 3.47l-5.442-6.047c.098-.181.177-.371.237-.572l31.341-1.65c.512 1.618 2.008 2.799 3.796 2.799 2.209 0 4-1.791 4-4s-1.791-4-4-4c-1.937 0-3.551 1.377-3.92 3.205l-31.31 1.648c-.45-1.087-1.52-1.853-2.77-1.853-1.657 0-3 1.343-3 3 0 1.044.535 1.962 1.344 2.499l-3.632 14.53c-1.52.147-2.712 1.413-2.712 2.971 0 1.532 1.152 2.781 2.634 2.963l2.778 12.501c-.845.53-1.412 1.464-1.412 2.536 0 1.657 1.343 3 3 3 .508 0 .979-.138 1.399-.361l8.114 7.438c-.317.573-.513 1.222-.513 1.923v2h14v-1.623l10.943-12.435 13.436 13.436c.398.398.937.621 1.5.621 1.171.001 2.121-.949 2.121-2.12 0-.563-.224-1.102-.621-1.5l-13.628-13.628 7.701-8.751zm-19-6c0 7.18-5.82 13-13 13s-13-5.82-13-13 5.82-13 13-13 13 5.82 13 13zm-28.999-.02-4.137-.827c-.202-.683-.628-1.268-1.208-1.652l3.633-14.53c.301-.029.592-.089.86-.201l5.431 6.034c-2.826 2.882-4.574 6.823-4.579 11.176zm19.438 28.008c-.695-1.184-1.967-1.988-3.439-1.988h-3-3c-.78 0-1.502.232-2.118.619l-8.122-7.445c.154-.361.24-.757.24-1.174 0-1.532-1.152-2.781-2.634-2.963l-2.778-12.501c.517-.325.933-.796 1.174-1.364l4.384.877c.885 6.91 6.168 12.434 12.96 13.677l-.275 2.292c-2.129.09-3.831 1.831-3.831 3.982 0 2.209 1.791 4 4 4s4-1.791 4-4c0-1.561-.903-2.898-2.206-3.557l.299-2.489c.302.017.601.046.907.046 3.653 0 7.009-1.238 9.702-3.298l3.824 3.824zm12.895-14.654-3.632-3.632c1.465-1.915 2.503-4.17 2.987-6.623l2.362.417c-.021.166-.051.331-.051.504v2h4.788z"/><circle cx="29" cy="25" r="4"/><path d="m37 33.004c0-2.211-1.793-4.004-4.004-4.004h-3.996-3.996c-2.211 0-4.004 1.793-4.004 4.004v1.996h16z"/></svg>